<svg class="svg-icon" style="width: 1em; height: 1em;vertical-align: middle;fill: currentColor;overflow: hidden;" viewBox="0 0 1024 1024" version="1.1" xmlns="http://www.w3.org/2000/svg"><path d="M591.3 512.6l318.9-318.9c22-22 22-57.7 0-79.7s-57.7-22-79.7 0L511.6 432.9 192.7 114c-22-22-57.7-22-79.7 0s-22 57.7 0 79.7l318.9 318.9-119.6 119.6c-22 22-22 57.7 0 79.7s57.7 22 79.7 0l119.6-119.6 318.9 318.9c22 22 57.7 22 79.7 0s22-57.7 0-79.7L591.3 512.6zM232.6 791.6c-22-22-57.7-22-79.7 0L113 831.5c-22 22-22 57.7 0 79.7s57.7 22 79.7 0l39.9-39.9c22-22 22-57.7 0-79.7z" fill="" /></svg>