<svg viewBox="0 -1 511.99946 511" xmlns="http://www.w3.org/2000/svg"><path d="m254.925781 510.425781c-58.511719 0-114.785156-19.929687-160.773437-57.378906-52.890625-43.074219-85.84375-104.164063-92.785156-172.015625-6.316407-61.714844 9.300781-124.011719 45.9375-173.992188 65.042968-88.726562 185.539062-106.539062 185.539062-106.539062l-22.453125 29.574219c-24.0625 34.722656-34.941406 77.015625-30.636719 119.085937 9.335938 91.253906 86.625 159.441406 176.445313 159.445313 6.019531 0 12.089843-.304688 18.203125-.933594 42.070312-4.304687 81.285156-23.523437 110.414062-54.117187l27.183594-28.546876-1.398438 39.394532c-2.167968 61.050781-26.363281 119.453125-68.128906 164.445312-42.15625 45.417969-99.363281 73.910156-161.078125 80.222656-8.855469.90625-17.6875 1.355469-26.46875 1.355469zm0 0"></path></svg>